ffmpeg started on 2025-06-19 at 11:50:56
Report written to "D:\Convert\FFMetrics\reports\ssim_report-6.txt"
Log level: 32
Command line:
ffmpeg -hide_banner -nostdin -i "G:\\\xc0\xed\xe8\xec\xe5\\[\xd2\xee\xef-4]\\Fate\\\xc0\xef\xee\xea\xf0\xe8\xf4\\Fate_Apocrypha_[07]_[AniLibria_TV]_[HDTVRip_720p]_HEVC.mkv" -i "G:\\\xc0\xed\xe8\xec\xe5\\[\xd2\xee\xef-4]\\Fate\\\xc0\xef\xee\xea\xf0\xe8\xf4\\Fate_Apocrypha_[07]_[AniLibria_TV]_[HDTVRip_720p].mkv" -lavfi "[0:v]settb=AVTB,setpts=PTS-STARTPTS,format=pix_fmts=yuv420p10,fps=24000/1001,scale=1280:720:flags=bicubic[main];[1:v]settb=AVTB,setpts=PTS-STARTPTS,format=pix_fmts=yuv420p,fps=24000/1001,scale=1280:720:flags=bicubic[ref];[main][ref]ssim=eof_action=endall:stats_file='D\\:/Convert/FFMetrics/logs/ssim_logfile-6.txt'" -f null -
Input #0, matroska,webm, from 'G:\Аниме\[Топ-4]\Fate\Апокриф\Fate_Apocrypha_[07]_[AniLibria_TV]_[HDTVRip_720p]_HEVC.mkv':
  Metadata:
    ENCODER         : Lavf61.7.100
  Duration: 00:24:00.17, start: -0.021000, bitrate: 675 kb/s
  Stream #0:0(jpn): Video: hevc (Main 10), yuv420p10le(tv, bt709, progressive), 1280x720 [SAR 1:1 DAR 16:9], 23.81 fps, 23.81 tbr, 1k tbn (default)
      Metadata:
        ENCODER         : Lavc61.19.100 libx265
        BPS             : 477137
        DURATION        : 00:24:00.054000000
        NUMBER_OF_FRAMES: 34525
        NUMBER_OF_BYTES : 85887983
        _STATISTICS_WRITING_APP: mkvpropedit v66.0.0 ('Josie') 64-bit
        _STATISTICS_WRITING_DATE_UTC: 2025-06-16 15:39:50
        _STATISTICS_TAGS: BPS DURATION NUMBER_OF_FRAMES NUMBER_OF_BYTES
  Stream #0:1(rus): Audio: aac (LC), 48000 Hz, stereo, fltp (default)
      Metadata:
        title           : Ados Amikiri Anzen Hekomi Silv
        ENCODER         : Lavc61.19.100 aac
        BPS             : 193967
        DURATION        : 00:24:00.149000000
        NUMBER_OF_FRAMES: 67508
        NUMBER_OF_BYTES : 34917700
        _STATISTICS_WRITING_APP: mkvpropedit v66.0.0 ('Josie') 64-bit
        _STATISTICS_WRITING_DATE_UTC: 2025-06-16 15:39:50
        _STATISTICS_TAGS: BPS DURATION NUMBER_OF_FRAMES NUMBER_OF_BYTES
  Stream #0:2(rus): Subtitle: ass (ssa) (default) (forced)
      Metadata:
        title           : Надписи
        BPS             : 145
        DURATION        : 00:23:05.550000000
        NUMBER_OF_FRAMES: 188
        NUMBER_OF_BYTES : 25154
        _STATISTICS_WRITING_APP: mkvpropedit v66.0.0 ('Josie') 64-bit
        _STATISTICS_WRITING_DATE_UTC: 2025-06-16 15:39:50
        _STATISTICS_TAGS: BPS DURATION NUMBER_OF_FRAMES NUMBER_OF_BYTES
  Stream #0:3(rus): Subtitle: ass (ssa)
      Metadata:
        title           : Полные
        BPS             : 241
        DURATION        : 00:23:37.020000000
        NUMBER_OF_FRAMES: 372
        NUMBER_OF_BYTES : 42741
        _STATISTICS_WRITING_APP: mkvpropedit v66.0.0 ('Josie') 64-bit
        _STATISTICS_WRITING_DATE_UTC: 2025-06-16 15:39:50
        _STATISTICS_TAGS: BPS DURATION NUMBER_OF_FRAMES NUMBER_OF_BYTES
Input #1, matroska,webm, from 'G:\Аниме\[Топ-4]\Fate\Апокриф\Fate_Apocrypha_[07]_[AniLibria_TV]_[HDTVRip_720p].mkv':
  Metadata:
    encoder         : libebml v1.3.0 + libmatroska v1.4.1
    creation_time   : 2017-08-13T21:18:52.000000Z
  Duration: 00:24:00.15, start: 0.000000, bitrate: 2108 kb/s
  Stream #1:0: Video: h264 (Main), yuv420p(tv, bt709, progressive), 1280x720, SAR 1:1 DAR 16:9, 23.81 fps, 23.81 tbr, 1k tbn (default)
      Metadata:
        BPS             : 1698529
        BPS-eng         : 1698529
        DURATION        : 00:24:00.045000000
        DURATION-eng    : 00:24:00.045000000
        NUMBER_OF_FRAMES: 34525
        NUMBER_OF_FRAMES-eng: 34525
        NUMBER_OF_BYTES : 305744860
        NUMBER_OF_BYTES-eng: 305744860
        _STATISTICS_WRITING_APP: mkvmerge v7.3.0 ('Nouages') 64bit built on Oct 22 2014 18:53:34
        _STATISTICS_WRITING_APP-eng: mkvmerge v7.3.0 ('Nouages') 64bit built on Oct 22 2014 18:53:34
        _STATISTICS_WRITING_DATE_UTC: 2017-08-13 21:18:52
        _STATISTICS_WRITING_DATE_UTC-eng: 2017-08-13 21:18:52
        _STATISTICS_TAGS: BPS DURATION NUMBER_OF_FRAMES NUMBER_OF_BYTES
        _STATISTICS_TAGS-eng: BPS DURATION NUMBER_OF_FRAMES NUMBER_OF_BYTES
  Stream #1:1(rus): Audio: aac (LC), 48000 Hz, stereo, fltp (default)
      Metadata:
        title           : Ados Amikiri Anzen Hekomi Silv
        BPS             : 192091
        BPS-eng         : 192091
        DURATION        : 00:24:00.149000000
        DURATION-eng    : 00:24:00.149000000
        NUMBER_OF_FRAMES: 67507
        NUMBER_OF_FRAMES-eng: 67507
        NUMBER_OF_BYTES : 34580121
        NUMBER_OF_BYTES-eng: 34580121
        _STATISTICS_WRITING_APP: mkvmerge v7.3.0 ('Nouages') 64bit built on Oct 22 2014 18:53:34
        _STATISTICS_WRITING_APP-eng: mkvmerge v7.3.0 ('Nouages') 64bit built on Oct 22 2014 18:53:34
        _STATISTICS_WRITING_DATE_UTC: 2017-08-13 21:18:52
        _STATISTICS_WRITING_DATE_UTC-eng: 2017-08-13 21:18:52
        _STATISTICS_TAGS: BPS DURATION NUMBER_OF_FRAMES NUMBER_OF_BYTES
        _STATISTICS_TAGS-eng: BPS DURATION NUMBER_OF_FRAMES NUMBER_OF_BYTES
  Stream #1:2(jpn): Audio: aac (LC), 48000 Hz, stereo, fltp
      Metadata:
        title           : Оригинал
        BPS             : 212183
        BPS-eng         : 212183
        DURATION        : 00:24:00.106000000
        DURATION-eng    : 00:24:00.106000000
        NUMBER_OF_FRAMES: 67505
        NUMBER_OF_FRAMES-eng: 67505
        NUMBER_OF_BYTES : 38195916
        NUMBER_OF_BYTES-eng: 38195916
        _STATISTICS_WRITING_APP: mkvmerge v7.3.0 ('Nouages') 64bit built on Oct 22 2014 18:53:34
        _STATISTICS_WRITING_APP-eng: mkvmerge v7.3.0 ('Nouages') 64bit built on Oct 22 2014 18:53:34
        _STATISTICS_WRITING_DATE_UTC: 2017-08-13 21:18:52
        _STATISTICS_WRITING_DATE_UTC-eng: 2017-08-13 21:18:52
        _STATISTICS_TAGS: BPS DURATION NUMBER_OF_FRAMES NUMBER_OF_BYTES
        _STATISTICS_TAGS-eng: BPS DURATION NUMBER_OF_FRAMES NUMBER_OF_BYTES
  Stream #1:3(rus): Subtitle: ass (ssa) (default) (forced)
      Metadata:
        title           : Надписи
        BPS             : 145
        BPS-eng         : 145
        DURATION        : 00:23:05.550000000
        DURATION-eng    : 00:23:05.550000000
        NUMBER_OF_FRAMES: 188
        NUMBER_OF_FRAMES-eng: 188
        NUMBER_OF_BYTES : 25154
        NUMBER_OF_BYTES-eng: 25154
        _STATISTICS_WRITING_APP: mkvmerge v7.3.0 ('Nouages') 64bit built on Oct 22 2014 18:53:34
        _STATISTICS_WRITING_APP-eng: mkvmerge v7.3.0 ('Nouages') 64bit built on Oct 22 2014 18:53:34
        _STATISTICS_WRITING_DATE_UTC: 2017-08-13 21:18:52
        _STATISTICS_WRITING_DATE_UTC-eng: 2017-08-13 21:18:52
        _STATISTICS_TAGS: BPS DURATION NUMBER_OF_FRAMES NUMBER_OF_BYTES
        _STATISTICS_TAGS-eng: BPS DURATION NUMBER_OF_FRAMES NUMBER_OF_BYTES
  Stream #1:4(rus): Subtitle: ass (ssa)
      Metadata:
        title           : Полные
        BPS             : 241
        BPS-eng         : 241
        DURATION        : 00:23:37.020000000
        DURATION-eng    : 00:23:37.020000000
        NUMBER_OF_FRAMES: 372
        NUMBER_OF_FRAMES-eng: 372
        NUMBER_OF_BYTES : 42741
        NUMBER_OF_BYTES-eng: 42741
        _STATISTICS_WRITING_APP: mkvmerge v7.3.0 ('Nouages') 64bit built on Oct 22 2014 18:53:34
        _STATISTICS_WRITING_APP-eng: mkvmerge v7.3.0 ('Nouages') 64bit built on Oct 22 2014 18:53:34
        _STATISTICS_WRITING_DATE_UTC: 2017-08-13 21:18:52
        _STATISTICS_WRITING_DATE_UTC-eng: 2017-08-13 21:18:52
        _STATISTICS_TAGS: BPS DURATION NUMBER_OF_FRAMES NUMBER_OF_BYTES
        _STATISTICS_TAGS-eng: BPS DURATION NUMBER_OF_FRAMES NUMBER_OF_BYTES
  Stream #1:5: Attachment: ttf
      Metadata:
        filename        : 9511(1).ttf
        mimetype        : application/x-truetype-font
  Stream #1:6: Attachment: ttf
      Metadata:
        filename        : ALBR.ttf
        mimetype        : application/x-truetype-font
Stream mapping:
  Stream #0:0 (hevc) -> settb:default
  Stream #1:0 (h264) -> settb:default
  ssim:default -> Stream #0:0 (wrapped_avframe)
  Stream #0:1 -> #0:1 (aac (native) -> pcm_s16le (native))
Output #0, null, to 'pipe:':
  Metadata:
    encoder         : Lavf61.7.100
  Stream #0:0: Video: wrapped_avframe, yuv420p10le(tv, bt709, progressive), 1280x720 [SAR 1:1 DAR 16:9], q=2-31, 200 kb/s, 23.98 fps, 23.98 tbn
      Metadata:
        encoder         : Lavc61.19.100 wrapped_avframe
  Stream #0:1(rus): Audio: pcm_s16le, 48000 Hz, stereo, s16, 1536 kb/s (default)
      Metadata:
        title           : Ados Amikiri Anzen Hekomi Silv
        _STATISTICS_TAGS: BPS DURATION NUMBER_OF_FRAMES NUMBER_OF_BYTES
        BPS             : 193967
        DURATION        : 00:24:00.149000000
        NUMBER_OF_FRAMES: 67508
        NUMBER_OF_BYTES : 34917700
        _STATISTICS_WRITING_APP: mkvpropedit v66.0.0 ('Josie') 64-bit
        _STATISTICS_WRITING_DATE_UTC: 2025-06-16 15:39:50
        encoder         : Lavc61.19.100 pcm_s16le
frame=  434 fps=0.0 q=-0.0 size=N/A time=00:00:18.10 bitrate=N/A speed=35.3x    frame=  895 fps=874 q=-0.0 size=N/A time=00:00:37.32 bitrate=N/A speed=36.4x    frame= 1299 fps=838 q=-0.0 size=N/A time=00:00:54.17 bitrate=N/A speed=  35x    frame= 1769 fps=859 q=-0.0 size=N/A time=00:01:13.78 bitrate=N/A speed=35.8x    frame= 2251 fps=876 q=-0.0 size=N/A time=00:01:33.88 bitrate=N/A speed=36.5x    frame= 2665 fps=861 q=-0.0 size=N/A time=00:01:51.15 bitrate=N/A speed=35.9x    frame= 3015 fps=836 q=-0.0 size=N/A time=00:02:05.75 bitrate=N/A speed=34.9x    frame= 3537 fps=857 q=-0.0 size=N/A time=00:02:27.52 bitrate=N/A speed=35.7x    frame= 4008 fps=864 q=-0.0 size=N/A time=00:02:47.16 bitrate=N/A speed=  36x    frame= 4457 fps=865 q=-0.0 size=N/A time=00:03:05.89 bitrate=N/A speed=36.1x    frame= 4859 fps=856 q=-0.0 size=N/A time=00:03:22.66 bitrate=N/A speed=35.7x    frame= 5393 fps=872 q=-0.0 size=N/A time=00:03:44.93 bitrate=N/A speed=36.4x    frame= 5868 fps=877 q=-0.0 size=N/A time=00:04:04.74 bitrate=N/A speed=36.6x    frame= 6350 fps=880 q=-0.0 size=N/A time=00:04:24.84 bitrate=N/A speed=36.7x    frame= 6956 fps=900 q=-0.0 size=N/A time=00:04:50.12 bitrate=N/A speed=37.5x    frame= 7551 fps=916 q=-0.0 size=N/A time=00:05:14.93 bitrate=N/A speed=38.2x    frame= 8195 fps=935 q=-0.0 size=N/A time=00:05:41.79 bitrate=N/A speed=  39x    frame= 8801 fps=949 q=-0.0 size=N/A time=00:06:07.07 bitrate=N/A speed=39.6x    frame= 9358 fps=956 q=-0.0 size=N/A time=00:06:30.26 bitrate=N/A speed=39.9x    frame= 9904 fps=960 q=-0.0 size=N/A time=00:06:53.07 bitrate=N/A speed=40.1x    frame=10377 fps=959 q=-0.0 size=N/A time=00:07:12.80 bitrate=N/A speed=  40x    frame=10864 fps=958 q=-0.0 size=N/A time=00:07:33.11 bitrate=N/A speed=39.9x    frame=11363 fps=959 q=-0.0 size=N/A time=00:07:53.93 bitrate=N/A speed=  40x    frame=11997 fps=970 q=-0.0 size=N/A time=00:08:20.37 bitrate=N/A speed=40.4x    frame=12656 fps=982 q=-0.0 size=N/A time=00:08:47.86 bitrate=N/A speed=  41x    frame=13269 fps=990 q=-0.0 size=N/A time=00:09:13.42 bitrate=N/A speed=41.3x    frame=13918 fps=1000 q=-0.0 size=N/A time=00:09:40.49 bitrate=N/A speed=41.7x    frame=14503 fps=1005 q=-0.0 size=N/A time=00:10:04.89 bitrate=N/A speed=41.9x    frame=14950 fps=1000 q=-0.0 size=N/A time=00:10:23.53 bitrate=N/A speed=41.7x    frame=15399 fps=996 q=-0.0 size=N/A time=00:10:42.26 bitrate=N/A speed=41.6x    frame=15845 fps=991 q=-0.0 size=N/A time=00:11:00.86 bitrate=N/A speed=41.3x    frame=16321 fps=989 q=-0.0 size=N/A time=00:11:20.72 bitrate=N/A speed=41.3x    frame=16822 fps=989 q=-0.0 size=N/A time=00:11:41.61 bitrate=N/A speed=41.2x    frame=17437 fps=995 q=-0.0 size=N/A time=00:12:07.26 bitrate=N/A speed=41.5x    frame=18088 fps=1002 q=-0.0 size=N/A time=00:12:34.42 bitrate=N/A speed=41.8x    frame=18730 fps=1009 q=-0.0 size=N/A time=00:13:01.19 bitrate=N/A speed=42.1x    frame=19354 fps=1015 q=-0.0 size=N/A time=00:13:27.22 bitrate=N/A speed=42.3x    frame=19956 fps=1018 q=-0.0 size=N/A time=00:13:52.33 bitrate=N/A speed=42.5x    frame=20585 fps=1024 q=-0.0 size=N/A time=00:14:18.56 bitrate=N/A speed=42.7x    frame=21209 fps=1029 q=-0.0 size=N/A time=00:14:44.59 bitrate=N/A speed=42.9x    frame=21708 fps=1027 q=-0.0 size=N/A time=00:15:05.40 bitrate=N/A speed=42.8x    frame=22124 fps=1022 q=-0.0 size=N/A time=00:15:22.75 bitrate=N/A speed=42.6x    frame=22634 fps=1021 q=-0.0 size=N/A time=00:15:44.02 bitrate=N/A speed=42.6x    frame=23192 fps=1022 q=-0.0 size=N/A time=00:16:07.29 bitrate=N/A speed=42.6x    frame=23779 fps=1025 q=-0.0 size=N/A time=00:16:31.78 bitrate=N/A speed=42.8x    frame=24095 fps=1016 q=-0.0 size=N/A time=00:16:44.96 bitrate=N/A speed=42.4x    frame=24554 fps=1013 q=-0.0 size=N/A time=00:17:04.10 bitrate=N/A speed=42.3x    frame=25064 fps=1013 q=-0.0 size=N/A time=00:17:25.37 bitrate=N/A speed=42.3x    frame=25649 fps=1015 q=-0.0 size=N/A time=00:17:49.77 bitrate=N/A speed=42.3x    frame=26276 fps=1020 q=-0.0 size=N/A time=00:18:15.92 bitrate=N/A speed=42.5x    frame=26878 fps=1022 q=-0.0 size=N/A time=00:18:41.03 bitrate=N/A speed=42.6x    frame=27421 fps=1023 q=-0.0 size=N/A time=00:19:03.68 bitrate=N/A speed=42.7x    frame=28052 fps=1027 q=-0.0 size=N/A time=00:19:30.00 bitrate=N/A speed=42.8x    frame=28664 fps=1029 q=-0.0 size=N/A time=00:19:55.52 bitrate=N/A speed=42.9x    frame=29251 fps=1032 q=-0.0 size=N/A time=00:20:20.01 bitrate=N/A speed=  43x    frame=29831 fps=1033 q=-0.0 size=N/A time=00:20:44.20 bitrate=N/A speed=43.1x    frame=30214 fps=1028 q=-0.0 size=N/A time=00:21:00.17 bitrate=N/A speed=42.9x    frame=30711 fps=1027 q=-0.0 size=N/A time=00:21:20.90 bitrate=N/A speed=42.8x    frame=31327 fps=1030 q=-0.0 size=N/A time=00:21:46.59 bitrate=N/A speed=42.9x    frame=31928 fps=1032 q=-0.0 size=N/A time=00:22:11.66 bitrate=N/A speed=43.1x    frame=32376 fps=1029 q=-0.0 size=N/A time=00:22:30.34 bitrate=N/A speed=42.9x    frame=32691 fps=1023 q=-0.0 size=N/A time=00:22:43.48 bitrate=N/A speed=42.7x    frame=33154 fps=1021 q=-0.0 size=N/A time=00:23:02.79 bitrate=N/A speed=42.6x    frame=33550 fps=1017 q=-0.0 size=N/A time=00:23:19.31 bitrate=N/A speed=42.4x    frame=33864 fps=1010 q=-0.0 size=N/A time=00:23:32.41 bitrate=N/A speed=42.1x    frame=34208 fps=1005 q=-0.0 size=N/A time=00:23:46.75 bitrate=N/A speed=41.9x    [Parsed_ssim_10 @ 00000243100de700] SSIM Y:0.983757 (17.893471) U:0.989141 (19.642080) V:0.989915 (19.963093) All:0.985681 (18.440853)
[out#0/null @ 0000024303f9eec0] video:14836KiB audio:270032KiB subtitle:0KiB other streams:0KiB global headers:0KiB muxing overhead: unknown
frame=34527 fps=1006 q=-0.0 Lsize=N/A time=00:24:00.06 bitrate=N/A speed=  42x    
